<mxfile host="app.diagrams.net" modified="2023-06-01T16:46:20.615Z" agent="Mozilla/5.0 (Windows NT 10.0; Win64; x64) AppleWebKit/537.36 (KHTML, like Gecko) Chrome/113.0.0.0 Safari/537.36" etag="XE6Zp6Bg-5HV0SDdepve" version="21.3.6" type="github">
  <diagram name="Page-1" id="Wexo_ZT8iOU94J6WoIaH">
    <mxGraphModel dx="1195" dy="-539" grid="1" gridSize="10" guides="1" tooltips="1" connect="1" arrows="1" fold="1" page="1" pageScale="1" pageWidth="827" pageHeight="1169" math="0" shadow="0">
      <root>
        <mxCell id="0" />
        <mxCell id="1" parent="0" />
        <mxCell id="1f5LFTUb_h4XbyoJQ_Gw-1" value="«Component»&lt;br&gt;&lt;b&gt;User Interface&lt;/b&gt;" style="html=1;dropTarget=0;whiteSpace=wrap;" vertex="1" parent="1">
          <mxGeometry x="230" y="1830" width="180" height="90" as="geometry" />
        </mxCell>
        <mxCell id="1f5LFTUb_h4XbyoJQ_Gw-2" value="" style="shape=module;jettyWidth=8;jettyHeight=4;" vertex="1" parent="1f5LFTUb_h4XbyoJQ_Gw-1">
          <mxGeometry x="1" width="20" height="20" relative="1" as="geometry">
            <mxPoint x="-27" y="7" as="offset" />
          </mxGeometry>
        </mxCell>
        <mxCell id="1f5LFTUb_h4XbyoJQ_Gw-3" value="«Component»&lt;br&gt;&lt;b&gt;User Interface&lt;/b&gt;" style="html=1;dropTarget=0;whiteSpace=wrap;" vertex="1" parent="1">
          <mxGeometry x="840" y="1748" width="180" height="90" as="geometry" />
        </mxCell>
        <mxCell id="1f5LFTUb_h4XbyoJQ_Gw-4" value="" style="shape=module;jettyWidth=8;jettyHeight=4;" vertex="1" parent="1f5LFTUb_h4XbyoJQ_Gw-3">
          <mxGeometry x="1" width="20" height="20" relative="1" as="geometry">
            <mxPoint x="-27" y="7" as="offset" />
          </mxGeometry>
        </mxCell>
        <mxCell id="1f5LFTUb_h4XbyoJQ_Gw-5" value="«Component»&lt;br&gt;&lt;b&gt;Database&lt;/b&gt;" style="html=1;dropTarget=0;whiteSpace=wrap;" vertex="1" parent="1">
          <mxGeometry x="840" y="1880" width="180" height="90" as="geometry" />
        </mxCell>
        <mxCell id="1f5LFTUb_h4XbyoJQ_Gw-6" value="" style="shape=module;jettyWidth=8;jettyHeight=4;" vertex="1" parent="1f5LFTUb_h4XbyoJQ_Gw-5">
          <mxGeometry x="1" width="20" height="20" relative="1" as="geometry">
            <mxPoint x="-27" y="7" as="offset" />
          </mxGeometry>
        </mxCell>
        <mxCell id="1f5LFTUb_h4XbyoJQ_Gw-7" value="" style="html=1;dropTarget=0;whiteSpace=wrap;" vertex="1" parent="1">
          <mxGeometry x="540" y="1740" width="180" height="210" as="geometry" />
        </mxCell>
        <mxCell id="1f5LFTUb_h4XbyoJQ_Gw-8" value="" style="shape=module;jettyWidth=8;jettyHeight=4;" vertex="1" parent="1f5LFTUb_h4XbyoJQ_Gw-7">
          <mxGeometry x="1" width="20" height="20" relative="1" as="geometry">
            <mxPoint x="-27" y="7" as="offset" />
          </mxGeometry>
        </mxCell>
        <mxCell id="1f5LFTUb_h4XbyoJQ_Gw-9" value="&amp;lt;&amp;lt;Component&amp;gt;&amp;gt;&lt;br&gt;&lt;b&gt;Quiz Web Server&lt;/b&gt;" style="text;html=1;strokeColor=none;fillColor=none;align=center;verticalAlign=middle;whiteSpace=wrap;rounded=0;" vertex="1" parent="1">
          <mxGeometry x="600" y="1754" width="60" height="30" as="geometry" />
        </mxCell>
        <mxCell id="1f5LFTUb_h4XbyoJQ_Gw-10" value="" style="rounded=0;orthogonalLoop=1;jettySize=auto;html=1;endArrow=none;endFill=0;sketch=0;sourcePerimeterSpacing=0;targetPerimeterSpacing=0;exitX=0;exitY=0.5;exitDx=0;exitDy=0;" edge="1" parent="1">
          <mxGeometry relative="1" as="geometry">
            <mxPoint x="840" y="1792" as="sourcePoint" />
            <mxPoint x="780" y="1792" as="targetPoint" />
          </mxGeometry>
        </mxCell>
        <mxCell id="1f5LFTUb_h4XbyoJQ_Gw-11" value="" style="rounded=0;orthogonalLoop=1;jettySize=auto;html=1;endArrow=halfCircle;endFill=0;entryX=0.5;entryY=0.5;endSize=6;strokeWidth=1;sketch=0;exitX=1;exitY=0.25;exitDx=0;exitDy=0;" edge="1" target="1f5LFTUb_h4XbyoJQ_Gw-12" parent="1" source="1f5LFTUb_h4XbyoJQ_Gw-7">
          <mxGeometry relative="1" as="geometry">
            <mxPoint x="400" y="2055" as="sourcePoint" />
          </mxGeometry>
        </mxCell>
        <mxCell id="1f5LFTUb_h4XbyoJQ_Gw-12" value="" style="ellipse;whiteSpace=wrap;html=1;align=center;aspect=fixed;resizable=0;points=[];outlineConnect=0;sketch=0;" vertex="1" parent="1">
          <mxGeometry x="770" y="1788" width="10" height="10" as="geometry" />
        </mxCell>
        <mxCell id="1f5LFTUb_h4XbyoJQ_Gw-13" value="" style="rounded=0;orthogonalLoop=1;jettySize=auto;html=1;endArrow=none;endFill=0;sketch=0;sourcePerimeterSpacing=0;targetPerimeterSpacing=0;exitX=0.017;exitY=0.595;exitDx=0;exitDy=0;exitPerimeter=0;" edge="1" target="1f5LFTUb_h4XbyoJQ_Gw-15" parent="1">
          <mxGeometry relative="1" as="geometry">
            <mxPoint x="540.0600000000002" y="1871.4799999999998" as="sourcePoint" />
            <mxPoint x="487" y="1871.53" as="targetPoint" />
          </mxGeometry>
        </mxCell>
        <mxCell id="1f5LFTUb_h4XbyoJQ_Gw-14" value="" style="rounded=0;orthogonalLoop=1;jettySize=auto;html=1;endArrow=halfCircle;endFill=0;endSize=6;strokeWidth=1;sketch=0;exitX=1;exitY=0.5;exitDx=0;exitDy=0;" edge="1" parent="1">
          <mxGeometry relative="1" as="geometry">
            <mxPoint x="410" y="1872.53" as="sourcePoint" />
            <mxPoint x="460" y="1872.53" as="targetPoint" />
          </mxGeometry>
        </mxCell>
        <mxCell id="1f5LFTUb_h4XbyoJQ_Gw-15" value="" style="ellipse;whiteSpace=wrap;html=1;align=center;aspect=fixed;resizable=0;points=[];outlineConnect=0;sketch=0;" vertex="1" parent="1">
          <mxGeometry x="456" y="1867" width="10" height="10" as="geometry" />
        </mxCell>
        <mxCell id="1f5LFTUb_h4XbyoJQ_Gw-16" value="" style="rounded=0;orthogonalLoop=1;jettySize=auto;html=1;endArrow=none;endFill=0;sketch=0;sourcePerimeterSpacing=0;targetPerimeterSpacing=0;exitX=-0.006;exitY=0.473;exitDx=0;exitDy=0;exitPerimeter=0;" edge="1" target="1f5LFTUb_h4XbyoJQ_Gw-18" parent="1" source="1f5LFTUb_h4XbyoJQ_Gw-5">
          <mxGeometry relative="1" as="geometry">
            <mxPoint x="755" y="2016.08" as="sourcePoint" />
          </mxGeometry>
        </mxCell>
        <mxCell id="1f5LFTUb_h4XbyoJQ_Gw-17" value="" style="rounded=0;orthogonalLoop=1;jettySize=auto;html=1;endArrow=halfCircle;endFill=0;endSize=6;strokeWidth=1;sketch=0;exitX=1.002;exitY=0.852;exitDx=0;exitDy=0;exitPerimeter=0;" edge="1" parent="1">
          <mxGeometry relative="1" as="geometry">
            <mxPoint x="720.3599999999999" y="1920" as="sourcePoint" />
            <mxPoint x="770" y="1921.08" as="targetPoint" />
          </mxGeometry>
        </mxCell>
        <mxCell id="1f5LFTUb_h4XbyoJQ_Gw-18" value="" style="ellipse;whiteSpace=wrap;html=1;align=center;aspect=fixed;resizable=0;points=[];outlineConnect=0;sketch=0;" vertex="1" parent="1">
          <mxGeometry x="766" y="1916" width="10" height="10" as="geometry" />
        </mxCell>
        <mxCell id="1f5LFTUb_h4XbyoJQ_Gw-19" value="requests challenge" style="text;html=1;strokeColor=none;fillColor=none;align=center;verticalAlign=middle;whiteSpace=wrap;rounded=0;" vertex="1" parent="1">
          <mxGeometry x="430" y="1837" width="60" height="30" as="geometry" />
        </mxCell>
        <mxCell id="1f5LFTUb_h4XbyoJQ_Gw-20" value="sends&lt;br&gt;challenger request" style="text;html=1;align=center;verticalAlign=middle;resizable=0;points=[];autosize=1;strokeColor=none;fillColor=none;" vertex="1" parent="1">
          <mxGeometry x="715" y="1748" width="120" height="40" as="geometry" />
        </mxCell>
        <mxCell id="1f5LFTUb_h4XbyoJQ_Gw-21" value="fetches quiz" style="text;html=1;align=center;verticalAlign=middle;resizable=0;points=[];autosize=1;strokeColor=none;fillColor=none;" vertex="1" parent="1">
          <mxGeometry x="726" y="1886" width="90" height="30" as="geometry" />
        </mxCell>
      </root>
    </mxGraphModel>
  </diagram>
</mxfile>
